<?xml version="1.0" encoding="UTF-8" standalone="no"?>
<!-- Created with Inkscape (http://www.inkscape.org/) -->

<svg
   width="210mm"
   height="297mm"
   viewBox="0 0 210 297"
   version="1.1"
   id="svg5"
   inkscape:version="1.2 (dc2aedaf03, 2022-05-15)"
   sodipodi:docname="data-science-explore.svg"
   inkscape:export-filename="data-science-explore.png"
   inkscape:export-xdpi="300"
   inkscape:export-ydpi="300"
   xmlns:inkscape="http://www.inkscape.org/namespaces/inkscape"
   xmlns:sodipodi="http://sodipodi.sourceforge.net/DTD/sodipodi-0.dtd"
   xmlns="http://www.w3.org/2000/svg"
   xmlns:svg="http://www.w3.org/2000/svg">
  <sodipodi:namedview
     id="namedview7"
     pagecolor="#ffffff"
     bordercolor="#000000"
     borderopacity="0.25"
     inkscape:showpageshadow="2"
     inkscape:pageopacity="0.0"
     inkscape:pagecheckerboard="0"
     inkscape:deskcolor="#d1d1d1"
     inkscape:document-units="mm"
     showgrid="false"
     inkscape:zoom="1.1893044"
     inkscape:cx="383.83781"
     inkscape:cy="196.33325"
     inkscape:window-width="1920"
     inkscape:window-height="1121"
     inkscape:window-x="1911"
     inkscape:window-y="-9"
     inkscape:window-maximized="1"
     inkscape:current-layer="layer1" />
  <defs
     id="defs2">
    <marker
       style="overflow:visible"
       id="marker2480"
       refX="0"
       refY="0"
       orient="auto-start-reverse"
       inkscape:stockid="Arrow2"
       markerWidth="7.6999998"
       markerHeight="5.5999999"
       viewBox="0 0 7.7 5.6"
       inkscape:isstock="true"
       inkscape:collect="always"
       preserveAspectRatio="xMidYMid">
      <path
         transform="scale(0.7)"
         d="M -2,-4 9,0 -2,4 c 2,-2.33 2,-5.66 0,-8 z"
         style="fill:context-stroke;fill-rule:evenodd;stroke:none"
         id="path2478" />
    </marker>
    <marker
       style="overflow:visible"
       id="Arrow2"
       refX="0"
       refY="0"
       orient="auto-start-reverse"
       inkscape:stockid="Arrow2"
       markerWidth="7.6999998"
       markerHeight="5.5999999"
       viewBox="0 0 7.7 5.6"
       inkscape:isstock="true"
       inkscape:collect="always"
       preserveAspectRatio="xMidYMid">
      <path
         transform="scale(0.7)"
         d="M -2,-4 9,0 -2,4 c 2,-2.33 2,-5.66 0,-8 z"
         style="fill:context-stroke;fill-rule:evenodd;stroke:none"
         id="arrow2L" />
    </marker>
    <marker
       style="overflow:visible"
       id="RoundedArrow"
       refX="0"
       refY="0"
       orient="auto-start-reverse"
       inkscape:stockid="RoundedArrow"
       markerWidth="6.1347523"
       markerHeight="5.9304953"
       viewBox="0 0 6.1347524 5.9304951"
       inkscape:isstock="true"
       inkscape:collect="always"
       preserveAspectRatio="xMidYMid">
      <path
         transform="scale(0.7)"
         d="m -0.21114562,-4.1055728 6.42229122,3.21114561 a 1,1 90 0 1 0,1.78885438 L -0.21114562,4.1055728 A 1.236068,1.236068 31.717474 0 1 -2,3 v -6 a 1.236068,1.236068 148.28253 0 1 1.78885438,-1.1055728 z"
         style="fill:context-stroke;fill-rule:evenodd;stroke:none"
         id="path1367" />
    </marker>
    <rect
       x="110.58721"
       y="173.61004"
       width="111.77632"
       height="57.077272"
       id="rect186" />
    <rect
       x="110.58721"
       y="173.61005"
       width="111.77632"
       height="57.077271"
       id="rect186-1" />
    <rect
       x="110.58721"
       y="173.61005"
       width="111.77632"
       height="57.077271"
       id="rect186-1-8" />
    <rect
       x="110.58721"
       y="173.61005"
       width="111.77632"
       height="57.077271"
       id="rect186-1-8-7" />
    <rect
       x="110.58721"
       y="173.61005"
       width="111.77632"
       height="57.077271"
       id="rect186-1-8-7-5" />
    <rect
       x="110.58721"
       y="173.61005"
       width="111.77632"
       height="57.077271"
       id="rect186-1-8-7-5-6" />
    <rect
       x="110.58721"
       y="173.61005"
       width="111.77632"
       height="57.077271"
       id="rect186-18" />
    <rect
       x="110.58721"
       y="173.61005"
       width="111.77632"
       height="57.077271"
       id="rect186-1-3" />
    <rect
       x="110.58721"
       y="173.61005"
       width="111.77632"
       height="57.077271"
       id="rect186-1-8-3" />
    <rect
       x="110.58721"
       y="173.61005"
       width="111.77632"
       height="57.077271"
       id="rect186-1-8-7-6" />
    <rect
       x="110.58721"
       y="173.61005"
       width="111.77632"
       height="57.077271"
       id="rect186-1-8-7-5-1" />
    <rect
       x="110.58721"
       y="173.61005"
       width="111.77632"
       height="57.077271"
       id="rect186-1-8-7-5-6-3" />
    <marker
       style="overflow:visible"
       id="RoundedArrow-2"
       refX="0"
       refY="0"
       orient="auto-start-reverse"
       inkscape:stockid="RoundedArrow"
       markerWidth="6.1347523"
       markerHeight="5.9304953"
       viewBox="0 0 6.1347524 5.9304951"
       inkscape:isstock="true"
       inkscape:collect="always"
       preserveAspectRatio="xMidYMid">
      <path
         transform="scale(0.7)"
         d="m -0.21114562,-4.1055728 6.42229122,3.21114561 a 1,1 90 0 1 0,1.78885438 L -0.21114562,4.1055728 A 1.236068,1.236068 31.717474 0 1 -2,3 v -6 a 1.236068,1.236068 148.28253 0 1 1.78885438,-1.1055728 z"
         style="fill:context-stroke;fill-rule:evenodd;stroke:none"
         id="path1367-9" />
    </marker>
    <marker
       style="overflow:visible"
       id="Arrow2-7"
       refX="0"
       refY="0"
       orient="auto-start-reverse"
       inkscape:stockid="Arrow2"
       markerWidth="7.6999998"
       markerHeight="5.5999999"
       viewBox="0 0 7.7 5.6"
       inkscape:isstock="true"
       inkscape:collect="always"
       preserveAspectRatio="xMidYMid">
      <path
         transform="scale(0.7)"
         d="M -2,-4 9,0 -2,4 c 2,-2.33 2,-5.66 0,-8 z"
         style="fill:context-stroke;fill-rule:evenodd;stroke:none"
         id="arrow2L-2" />
    </marker>
    <marker
       style="overflow:visible"
       id="RoundedArrow-2-0"
       refX="0"
       refY="0"
       orient="auto-start-reverse"
       inkscape:stockid="RoundedArrow"
       markerWidth="6.1347523"
       markerHeight="5.9304953"
       viewBox="0 0 6.1347524 5.9304951"
       inkscape:isstock="true"
       inkscape:collect="always"
       preserveAspectRatio="xMidYMid">
      <path
         transform="scale(0.7)"
         d="m -0.21114562,-4.1055728 6.42229122,3.21114561 a 1,1 90 0 1 0,1.78885438 L -0.21114562,4.1055728 A 1.236068,1.236068 31.717474 0 1 -2,3 v -6 a 1.236068,1.236068 148.28253 0 1 1.78885438,-1.1055728 z"
         style="fill:context-stroke;fill-rule:evenodd;stroke:none"
         id="path1367-9-7" />
    </marker>
    <rect
       x="110.58721"
       y="173.61005"
       width="111.77632"
       height="57.077271"
       id="rect186-18-2" />
    <rect
       x="110.58721"
       y="173.61005"
       width="111.77632"
       height="57.077271"
       id="rect186-18-2-3" />
  </defs>
  <g
     inkscape:groupmode="layer"
     id="layer2"
     inkscape:label="Layer 2" />
  <rect
     style="fill:#d7f4ee;stroke:none;stroke-width:0.264999"
     id="rect677"
     width="68.965378"
     height="47.60836"
     x="83.648338"
     y="25.917641"
     rx="3"
     ry="3" />
  <g
     inkscape:label="Layer 1"
     inkscape:groupmode="layer"
     id="layer1"
     transform="translate(3.7803591,-0.67128082)">
    <text
       xml:space="preserve"
       transform="matrix(0.26458333,0,0,0.26458333,-20.244677,-2.4471587)"
       id="text184"
       style="font-size:16px;font-family:'Times New Roman';-inkscape-font-specification:'Times New Roman, ';text-align:center;white-space:pre;shape-inside:url(#rect186-18);display:inline;fill:#2b0000;stroke:#000000;stroke-width:1.00157"><tspan
         x="149.14746"
         y="187.81131"
         id="tspan4406">Nhập
</tspan><tspan
         x="139.70215"
         y="207.81131"
         id="tspan4408">Dữ Liệu</tspan></text>
    <text
       xml:space="preserve"
       transform="matrix(0.26458333,0,0,0.26458333,46.021811,21.974804)"
       id="text184-7"
       style="font-size:16px;font-family:'Times New Roman';-inkscape-font-specification:'Times New Roman, ';text-align:center;white-space:pre;shape-inside:url(#rect186-18-2);display:inline;fill:#d40000;fill-opacity:1;stroke:none;stroke-width:1.00157"><tspan
         x="135.59277"
         y="187.81131"
         id="tspan4410">Tìm Hiểu</tspan></text>
    <text
       xml:space="preserve"
       transform="matrix(0.26458333,0,0,0.26458333,-17.632221,36.485125)"
       id="text184-7-6"
       style="font-size:16px;font-family:'Times New Roman';-inkscape-font-specification:'Times New Roman, ';text-align:center;white-space:pre;shape-inside:url(#rect186-18-2-3);display:inline;fill:#2b0000;stroke:#000000;stroke-width:1.00157"><tspan
         x="121.22559"
         y="187.81131"
         id="tspan4412">Chương Trình</tspan></text>
    <text
       xml:space="preserve"
       transform="matrix(0.26458333,0,0,0.26458333,13.98191,-2.3850759)"
       id="text184-6"
       style="font-size:16px;font-family:'Times New Roman';-inkscape-font-specification:'Times New Roman, ';text-align:center;white-space:pre;shape-inside:url(#rect186-1-3);display:inline;fill:#2b0000;stroke:#000000;stroke-width:1.00157"><tspan
         x="137.81934"
         y="187.81131"
         id="tspan4414">Xắp Xếp
</tspan><tspan
         x="133.37012"
         y="207.81131"
         id="tspan4416">Gọn Gàng</tspan></text>
    <text
       xml:space="preserve"
       transform="matrix(0.26458333,0,0,0.26458333,47.647704,-1.4896483)"
       id="text184-6-4"
       style="font-size:16px;font-family:'Times New Roman';-inkscape-font-specification:'Times New Roman, ';text-align:center;white-space:pre;shape-inside:url(#rect186-1-8-3);display:inline;fill:#d40000;stroke:none;stroke-width:1.00157"><tspan
         x="141.58887"
         y="187.81131"
         id="tspan4418">Chuyển
</tspan><tspan
         x="154.47559"
         y="207.81131"
         id="tspan4420">Đổi</tspan></text>
    <text
       xml:space="preserve"
       transform="matrix(0.26458333,0,0,0.26458333,86.360937,-13.105535)"
       id="text184-6-4-0"
       style="font-size:16px;font-family:'Times New Roman';-inkscape-font-specification:'Times New Roman, ';text-align:center;white-space:pre;shape-inside:url(#rect186-1-8-7-6);display:inline;fill:#d40000;stroke:none;stroke-width:1.00157"><tspan
         x="131.99121"
         y="187.81131"
         id="tspan4422">Trực Quan
</tspan><tspan
         x="153.14746"
         y="207.81131"
         id="tspan4424">Hóa</tspan></text>
    <text
       xml:space="preserve"
       transform="matrix(0.26458333,0,0,0.26458333,82.694695,12.915587)"
       id="text184-6-4-0-2"
       style="font-size:16px;font-family:'Times New Roman';-inkscape-font-specification:'Times New Roman, ';text-align:center;white-space:pre;shape-inside:url(#rect186-1-8-7-5-1);display:inline;fill:#d40000;stroke:none;stroke-width:1.00157"><tspan
         x="148.3623"
         y="187.81131"
         id="tspan4426">Dựng
</tspan><tspan
         x="137.3623"
         y="207.81131"
         id="tspan4428">Mô Hình</tspan></text>
    <text
       xml:space="preserve"
       transform="matrix(0.26458333,0,0,0.26458333,128.82165,-1.9185443)"
       id="text184-6-4-0-2-1"
       style="font-size:16px;font-family:'Times New Roman';-inkscape-font-specification:'Times New Roman, ';text-align:center;white-space:pre;shape-inside:url(#rect186-1-8-7-5-6-3);display:inline;fill:#2b0000;stroke:#000000;stroke-width:1.00157"><tspan
         x="137.37402"
         y="187.81131"
         id="tspan4430">Diễn Đạt
</tspan><tspan
         x="139.59668"
         y="207.81131"
         id="tspan4432">Kết Quả</tspan></text>
    <rect
       style="fill:none;stroke:#000000;stroke-width:0.264999;stroke-opacity:1"
       id="rect2838"
       width="175.97296"
       height="66.963158"
       x="12.682345"
       y="14.241888"
       rx="3"
       ry="3" />
  </g>
  <path
     style="fill:#d7f4ee;stroke:#000000;stroke-width:0.285143;stroke-opacity:1;marker-end:url(#RoundedArrow)"
     d="m 36.929849,47.830829 c 10.560606,0 10.560606,0 10.560606,0"
     id="path1594" />
  <path
     style="fill:#d7f4ee;stroke:#000000;stroke-width:0.329834;stroke-opacity:1;marker-end:url(#RoundedArrow-2)"
     d="m 72.676176,47.385892 c 14.130491,0 14.130491,0 14.130491,0"
     id="path1594-2" />
  <path
     style="fill:#d7f4ee;stroke:#000000;stroke-width:0.356987;stroke-opacity:1;marker-end:url(#RoundedArrow-2-0)"
     d="m 145.04163,47.350106 c 16.55277,0 16.55277,0 16.55277,0"
     id="path1594-2-5" />
  <path
     style="fill:#d7f4ee;stroke:#000000;stroke-width:0.264999;stroke-opacity:1;marker-end:url(#Arrow2)"
     d="m 104.33794,44.104475 1.66852,-2.169073 c 1.06004,-1.235997 2.68345,-2.332327 3.86257,-2.95612 4.58497,-2.425603 8.17191,-2.758711 10.70915,-2.716837 l 0.83426,-0.05562"
     id="path1944"
     sodipodi:nodetypes="ccscc" />
  <path
     style="fill:#d7f4ee;stroke:#000000;stroke-width:0.280967;stroke-opacity:1;marker-end:url(#Arrow2-7)"
     d="m 120.70433,65.278795 -3.57756,-0.471905 c -2.102,-0.351743 -4.36279,-1.181632 -5.79735,-1.847463 -5.57823,-2.589057 -8.06001,-5.186503 -9.48167,-7.12527 l -0.55094,-0.612111"
     id="path1944-6"
     sodipodi:nodetypes="ccscc" />
  <path
     style="fill:#d7f4ee;stroke:#000000;stroke-width:0.264999;stroke-opacity:1;marker-end:url(#marker2480)"
     d="m 140.55588,41.490333 1.24085,2.420707 0.75065,2.796016 0.0142,4.143181 c 0,0 -0.46858,2.479907 -1.61467,4.538829 -1.20025,2.156242 -2.04051,3.650634 -2.2984,3.887051"
     id="path2452"
     sodipodi:nodetypes="ccccsc" />
</svg>
